<svg width="40" height="40" viewBox="0 0 40 40" fill="none" xmlns="http://www.w3.org/2000/svg">
<path d="M12.3015 2.5C6.92121 2.5 2.5 6.91515 2.5 12.3015V26.0318C2.5 31.4121 6.91515 35.8333 12.3015 35.8333H26.0318C31.4121 35.8333 35.8333 31.4182 35.8333 26.0318V12.303C35.8333 6.92121 31.4182 2.5 26.0318 2.5H12.3015ZM12.3015 5.5303H26.0318C26.9214 5.52911 27.8024 5.70343 28.6245 6.04329C29.4465 6.38316 30.1935 6.88187 30.8225 7.51088C31.4515 8.13988 31.9502 8.88681 32.29 9.70887C32.6299 10.5309 32.8042 11.412 32.803 12.3015V26.0318C32.8042 26.9214 32.6299 27.8024 32.29 28.6245C31.9502 29.4465 31.4515 30.1935 30.8225 30.8225C30.1935 31.4515 29.4465 31.9502 28.6245 32.29C27.8024 32.6299 26.9214 32.8042 26.0318 32.803H12.303C11.4134 32.8044 10.5322 32.6302 9.70992 32.2905C8.88768 31.9507 8.14058 31.452 7.51141 30.823C6.88225 30.194 6.38339 29.447 6.04344 28.6248C5.70348 27.8027 5.52911 26.9215 5.5303 26.0318V12.303C5.52891 11.4134 5.70309 10.5322 6.04286 9.70992C6.38263 8.88768 6.88132 8.14058 7.51034 7.51141C8.13936 6.88225 8.88636 6.38339 9.70852 6.04344C10.5307 5.70348 11.4118 5.52911 12.3015 5.5303ZM28.1152 8.84545C27.9345 8.84425 27.7555 8.87893 27.5884 8.94749C27.4213 9.01604 27.2695 9.11711 27.1418 9.24482C27.0141 9.37253 26.913 9.52434 26.8445 9.69144C26.7759 9.85853 26.7412 10.0376 26.7424 10.2182C26.7424 10.9818 27.3515 11.5909 28.1152 11.5909C28.2959 11.5923 28.4751 11.5578 28.6424 11.4893C28.8096 11.4209 28.9616 11.3198 29.0895 11.1921C29.2174 11.0644 29.3186 10.9125 29.3872 10.7453C29.4559 10.5781 29.4906 10.3989 29.4894 10.2182C29.4906 10.0374 29.4559 9.85827 29.3872 9.69108C29.3186 9.52389 29.2174 9.37201 29.0895 9.24428C28.9616 9.11655 28.8096 9.01551 28.6424 8.94704C28.4751 8.87858 28.2959 8.84404 28.1152 8.84545ZM19.1667 10.0758C14.1667 10.0758 10.0758 14.1667 10.0758 19.1667C10.0758 24.1667 14.1667 28.2576 19.1667 28.2576C24.1667 28.2576 28.2576 24.1667 28.2576 19.1667C28.2576 14.1667 24.1667 10.0758 19.1667 10.0758ZM19.1667 13.1061C22.5348 13.1061 25.2273 15.7985 25.2273 19.1667C25.2273 22.5348 22.5348 25.2273 19.1667 25.2273C15.7985 25.2273 13.1061 22.5348 13.1061 19.1667C13.1061 15.7985 15.7985 13.1061 19.1667 13.1061Z" fill="white"/>
</svg>
