<svg width="652" height="160" viewBox="0 0 652 160" fill="none" xmlns="http://www.w3.org/2000/svg">
<path d="M429.775 35.5671H444.726V124.433H429.775V35.5671ZM518.409 125.641C508.71 125.641 500.032 123.627 492.38 119.594C484.723 115.562 478.721 110.045 474.357 103.033C470.087 95.9381 467.952 87.9993 467.952 79.2165C467.952 70.4336 470.131 62.9748 474.489 56.1229C478.853 49.2709 484.899 43.9141 492.645 40.0412C500.385 36.1739 509.107 34.2375 518.812 34.2375C524.064 34.2375 528.781 34.6788 532.962 35.5671C537.232 36.3725 540.702 37.338 543.373 38.4689C546.043 39.5171 547.869 40.444 548.845 41.2494L542.97 52.6142C537.453 48.5869 529.305 46.5677 518.541 46.5677C511.419 46.5677 505.235 47.98 499.983 50.7991C494.73 53.6182 490.725 57.4469 487.967 62.2852C485.208 67.1235 483.829 72.519 483.829 78.4882C483.829 85.2574 485.297 91.3039 488.232 96.6222C491.26 101.94 495.398 106.095 500.65 109.074C505.99 111.976 511.998 113.427 518.674 113.427C522.861 113.427 526.861 112.985 530.689 112.097C534.513 111.132 537.762 109.636 540.432 107.623V90.4543H520.274V78.0028H555.25V112.825C552.051 116.45 547.196 119.517 540.697 122.016C534.292 124.433 526.861 125.646 518.403 125.646L518.409 125.641ZM591.849 66.8808L592.252 76.5518V124.433H577.301V35.4457H579.172L636.839 93.7203L636.304 83.5638V35.5671H651.255V124.433H649.252L591.844 66.8808H591.849Z" fill="url(#paint0_linear_473_10)"/>
<path d="M50.4627 123.125C40.7641 123.125 32.0861 121.112 24.4287 117.079C16.7768 113.046 10.7689 107.529 6.40508 100.517C2.13503 93.4224 0 85.4837 0 76.7008C0 67.918 2.17916 60.4592 6.543 53.6073C10.9013 46.7553 16.9533 41.3984 24.699 37.5256C32.4447 33.6583 41.1613 31.7219 50.8655 31.7219C56.1175 31.7219 60.8344 32.1632 65.0162 33.0514C69.2863 33.8569 72.7564 34.8224 75.4265 35.9533C78.0967 37.0015 79.9228 37.9283 80.8992 38.7338L75.0238 50.0985C69.5069 46.0712 61.364 44.0521 50.5951 44.0521C43.4729 44.0521 37.2885 45.4644 32.0364 48.2835C26.7844 51.1026 22.7791 54.9313 20.0207 59.7696C17.2623 64.6079 15.883 70.0034 15.883 75.9726C15.883 82.7418 17.3505 88.7883 20.291 94.1065C23.3143 99.4248 27.4574 103.579 32.7039 106.558C38.0443 109.46 44.0521 110.911 50.7275 110.911C54.9093 110.911 58.9146 110.47 62.7433 109.581C66.572 108.616 69.8159 107.121 72.486 105.107V87.9387H52.3274V75.4871H87.3043V110.31C84.099 113.934 79.2497 117.001 72.7508 119.501C66.3458 121.917 58.909 123.131 50.4572 123.131L50.4627 123.125ZM158.345 121.917L138.589 88.3028C134.496 88.4628 130.849 88.5455 127.644 88.5455H123.903V121.917H109.35V33.0514H131.643C142.947 33.0514 152.249 35.1865 159.542 39.462C166.841 43.6548 170.488 50.5068 170.488 60.0178C170.488 65.9816 168.932 71.1398 165.815 75.4926C162.786 79.7627 158.251 83.0673 152.199 85.4064L175.563 121.923H158.345V121.917ZM133.381 77.5449C142.103 77.5449 148.067 75.8512 151.272 72.4694C154.566 69.0048 156.21 64.8948 156.21 60.1392C156.21 49.58 148.426 44.3003 132.846 44.3003H123.903V77.5504H133.381V77.5449ZM232.083 32.9301L279.341 121.917H262.117L253.709 104.506H208.719L200.312 121.917H183.623L230.616 32.9301H232.083ZM225.408 70.7757L214.727 92.297H247.834L237.286 70.8971L231.543 58.6883H231.278L225.402 70.7812L225.408 70.7757Z" fill="url(#paint1_linear_473_10)"/>
<path d="M429.929 151.173L365.663 79.5973L378.12 65.7169L421.46 17.5326L437.189 0H374.909L346.966 31.1261L319.023 0H256.738L328.28 79.6524L256.159 160H318.422L334.145 142.467L346.972 128.201L359.793 142.467L375.516 160H437.796L429.929 151.179V151.173ZM371.638 17.5216L379.499 8.75526H416.865L359.418 72.7288L353.189 65.7886L396.541 17.5216H384.084L359.412 44.9735L353.184 38.0332L371.632 17.5105L371.638 17.5216ZM346.966 44.9735L353.189 51.9137L346.961 58.8539L340.738 51.9137L346.966 44.9735ZM353.189 79.6249L346.961 86.5651L340.738 79.6249L346.961 72.6846L353.189 79.6249ZM322.046 58.8373L284.918 17.5381L277.056 8.77181H314.422L340.721 38.0608L334.492 45.001L309.821 17.5491H297.364L340.721 65.8162L334.492 72.7564L328.264 65.8162L322.041 58.8428L322.046 58.8373ZM321.682 142.407L313.821 151.173H276.45L322.052 100.412L334.504 86.532L340.732 93.4722L296.768 142.407H309.225L334.504 114.287L340.732 121.228L321.682 142.407ZM346.961 114.287L340.738 107.347L346.961 100.407L353.189 107.347L346.961 114.287ZM380.1 151.168L372.239 142.401L353.189 121.222L359.418 114.282L384.696 142.401H397.175L365.668 107.347L353.217 93.4667L359.445 86.5265L417.494 151.168H380.1Z" fill="url(#paint2_linear_473_10)"/>
<defs>
<linearGradient id="paint0_linear_473_10" x1="325.711" y1="-126.532" x2="325.711" y2="160.061" gradientUnits="userSpaceOnUse">
<stop stop-color="white"/>
<stop offset="0.45" stop-color="#717171"/>
<stop offset="1"/>
</linearGradient>
<linearGradient id="paint1_linear_473_10" x1="325.711" y1="-126.532" x2="325.711" y2="160.061" gradientUnits="userSpaceOnUse">
<stop stop-color="white"/>
<stop offset="0.45" stop-color="#717171"/>
<stop offset="1"/>
</linearGradient>
<linearGradient id="paint2_linear_473_10" x1="325.711" y1="-126.532" x2="325.711" y2="160.061" gradientUnits="userSpaceOnUse">
<stop stop-color="white"/>
<stop offset="0.45" stop-color="#717171"/>
<stop offset="1"/>
</linearGradient>
</defs>
</svg>
